<?xml version="1.0" encoding="utf-8"?>
<!-- Generator: Adobe Illustrator 16.0.4, SVG Export Plug-In . SVG Version: 6.00 Build 0)  -->
<!DOCTYPE svg PUBLIC "-//W3C//DTD SVG 1.1//EN" "http://www.w3.org/Graphics/SVG/1.1/DTD/svg11.dtd">
<svg xmlns="http://www.w3.org/2000/svg" xmlns:xlink="http://www.w3.org/1999/xlink" version="1.1" id="Layer_1" x="0px" y="0px" width="680.31px" height="926.93px" viewBox="0 0 680.31 926.93" enable-background="new 0 0 680.31 926.93" xml:space="preserve">
<path fill-rule="evenodd" clip-rule="evenodd" fill="#716F73" d="M142.749,373.668c-2.991,6.412-5.816,12.373-8.551,18.375  c-1.356,2.976-2.782,5.866-6.632,5.836c-3.854-0.031-5.237-3.004-6.587-5.944c-2.845-6.196-5.719-12.38-8.58-18.57  c-1.307-2.829-1.822-5.739,1.631-7.199c3.269-1.381,5.278,0.545,6.52,3.576c2.141,5.229,4.395,10.411,6.806,16.097  c2.763-3.938,3.893-8.189,5.643-12.118c3.6-8.08,9.103-10.142,16.725-5.775c1.794,1.027,2.867,0.803,4.421-0.138  c4.671-2.826,9.524-3.101,14.04,0.153c1.874,1.35,2.915,0.477,4.399-0.299c9.818-5.127,17.723-0.328,17.784,10.763  c0.026,4.665,0.023,9.331-0.016,13.996c-0.026,3.006-1.127,5.4-4.509,5.41c-3.341,0.01-4.571-2.356-4.646-5.343  c-0.096-3.83-0.029-7.664-0.033-11.496c-0.003-3.395,0.312-7.221-4.638-7.131c-4.54,0.082-4.409,3.633-4.391,6.91  c0.021,3.832,0.008,7.664-0.03,11.496c-0.032,3.223-1.185,5.731-4.858,5.56c-3.355-0.156-4.329-2.525-4.262-5.585  c0.077-3.497,0.062-6.998,0.004-10.496c-0.057-3.42,0.771-7.77-4.451-7.845c-5.653-0.082-4.594,4.541-4.68,8.07  c-0.085,3.497,0.021,6.999-0.039,10.497c-0.051,3.033-1.336,5.33-4.625,5.371c-3.421,0.042-4.454-2.441-4.502-5.402  c-0.074-4.498-0.01-8.997-0.081-13.495C144.584,377.349,145.108,375.578,142.749,373.668z"/>
<path fill-rule="evenodd" clip-rule="evenodd" fill="#548B50" d="M368.856,474.853c1.89-3.351,4.449-6.167,7.106-8.906  c13.202-8.181,26.817-15.649,40.279-23.392c0.45-0.171,0.918-0.25,1.398-0.265c0.482,0.068,0.911,0.258,1.277,0.583  c-3.993,6.721-9.48,12.295-14.286,18.384c-2.088,2.645-1.891,4.187,0.151,6.6c4.604,5.438,8.89,11.146,13.305,16.745  c2.41,5.425,1.181,11.121,1.26,16.718c-0.062,0.564-0.202,1.115-0.399,1.646c-0.134,0.237-0.277,0.479-0.411,0.714  c-0.358,0.42-0.824,0.631-1.378,0.632c-5.492-2.551-10.613-5.735-15.466-9.363c-2.931-3.599-5.918-7.153-8.778-10.806  c-3.941-5.032-3.901-5.064-8.039-0.143c-5.484,0.704-8.718-3.78-13.043-5.738C370.495,477.656,368.622,477.044,368.856,474.853z"/>
<path fill-rule="evenodd" clip-rule="evenodd" fill="#727B83" d="M177.083,499.921c-2.362-2.997-4.724-5.994-7.085-8.991  c-2.989-8.98-1.307-18.187-1.25-27.307c0.008-1.209,0.436-2.692,2.25-2.695c6.7,8.554,13.4,17.108,20.101,25.662  c0.362-0.075,0.724-0.15,1.086-0.226c0-9.84,0-19.68,0-29.52c0.266-0.219,0.611-0.504,0.871-0.408  c7.002,2.585,13.738,5.618,18.803,11.401c-0.001,4.048-0.002,8.096-0.003,12.145c-1.526,3.091-4.679,4.051-7.373,5.594  c-7.183,4.111-14.277,8.373-21.469,12.468C181.185,499.087,179.482,500.638,177.083,499.921z"/>
<path fill-rule="evenodd" clip-rule="evenodd" fill="#ACD3E9" d="M146.131,428.903c3.954,4.993,7.908,9.987,11.861,14.98  c-1.072,1.266-2.589,1.594-4.072,1.523c-6.732-0.32-13.636,1.58-20.161-1.497c-0.918,0.347-1.682-3.141-2.708-0.108  c-5.883,3.133-12.104,1.343-18.212,1.256c-0.606-0.201-1.136-0.528-1.592-0.975c0.033-9.724-0.976-19.478,0.799-29.154  c1.132-1.23,2.448-2.175,4.087-2.62c0.476-0.095,0.953-0.104,1.435-0.058C127.477,417.133,136.972,422.731,146.131,428.903z"/>
<path fill-rule="evenodd" clip-rule="evenodd" fill="#3C3669" d="M275.01,453.883c11.111,2.521,22.314,4.795,32.483,10.241  c5.506,2.949,10.277,6.769,12.785,12.782c0.04,0.333,0.113,0.769-0.092,0.945c-5.277,4.549-10.646,8.947-17.899,9.939  c-1.803-4.815-5.919-7.078-10.294-8.67c-5.561-2.023-11.309-3.529-16.977-5.258C272.792,467.205,272.762,460.544,275.01,453.883z"/>
<path fill-rule="evenodd" clip-rule="evenodd" fill="#589DD4" d="M274.015,406.972c14.443-1.262,27.8,1.896,39.952,9.878  c0.794,0.521,1.4,1.328,2.095,2.003c0.376,0.936-0.088,1.674-0.78,2.099c-5.277,3.24-10.213,7.113-16.287,8.891  c-8.25-3.748-16.694-6.501-25.955-5.071C272.454,418.788,271.335,412.776,274.015,406.972z"/>
<path fill-rule="evenodd" clip-rule="evenodd" fill="#369A58" d="M416.961,443.018c-12.633,7.458-25.256,14.933-37.918,22.34  c-0.867,0.507-1.82,1.67-3.08,0.588c0.596-2.17-1.093-3.302-2.178-4.673c-4.587-5.801-9.21-11.574-13.82-17.357  c-0.078-1.271,0.841-1.942,1.789-2.012c7.209-0.531,14.465-1.805,21.545,0.884c0.136,0.091,0.282,0.169,0.407,0.272  c2.342,1.959,3.384,6.619,6.05,6.298c2.268-0.272,4.097-4.188,6.12-6.492C402.921,440.653,409.953,440.18,416.961,443.018z"/>
<path fill-rule="evenodd" clip-rule="evenodd" fill="#47A3A3" d="M368.856,474.853c5.095,3.479,10.323,6.723,16.021,9.146  c-5.166,6.679-10.331,13.355-15.496,20.033c-8.075,2.342-16.143,2.524-24.201-0.086  C353.072,494.249,360.965,484.551,368.856,474.853z"/>
<path fill-rule="evenodd" clip-rule="evenodd" fill="#66B057" d="M383.299,442.788c-6.234,0.053-12.469,0.077-18.702,0.178  c-1.581,0.025-3.326-0.511-4.631,0.951c-5.102-6.238-10.503-12.237-15.02-18.938c-0.426-1.527,0.758-2.163,1.722-2.649  c5.097-2.569,9.135-7.342,15.414-7.453C369.566,423.867,376.67,433.147,383.299,442.788z"/>
<path fill-rule="evenodd" clip-rule="evenodd" fill="#86939D" d="M170.999,460.928c-1.88,1.979-0.919,4.424-0.956,6.638  c-0.126,7.786-0.047,15.576-0.045,23.364c-8.399-10.94-17.404-21.421-25.029-32.949c-0.521-2.183,1.212-2.874,2.581-3.6  c4.338-2.299,8.368-5.098,12.595-7.572C163.763,451.515,167.38,456.222,170.999,460.928z"/>
<path fill-rule="evenodd" clip-rule="evenodd" fill="#716F73" d="M214.833,374.18c-2.609,7.425-4.75,13.605-6.966,19.759  c-0.597,1.66-0.882,3.821-3.25,3.895c-2.384,0.074-2.825-2.04-3.43-3.705c-2.836-7.802-5.591-15.633-8.385-23.45  c-0.577-1.615-1.292-3.434,0.826-4.285c2.379-0.957,3.168,0.924,3.802,2.749c2.266,6.527,4.542,13.051,7.254,20.84  c2.45-7.12,4.404-13.08,6.579-18.959c0.692-1.872,0.641-4.757,3.54-4.797c2.872-0.04,2.985,2.703,3.681,4.65  c2.096,5.87,4.116,11.767,6.64,19.015c2.652-7.574,4.776-13.763,7-19.914c0.641-1.771,1.026-4.553,3.736-3.581  c2.612,0.936,1.329,3.394,0.709,5.158c-2.696,7.676-5.525,15.305-8.283,22.959c-0.574,1.595-1.063,3.331-3.156,3.316  c-2.089-0.015-2.585-1.776-3.143-3.358C219.745,388.117,217.506,381.76,214.833,374.18z"/>
<path fill-rule="evenodd" clip-rule="evenodd" fill="#3365A4" d="M274.015,406.972c-0.49,5.924,1.075,11.961-0.976,17.799  c-6.211,0.753-10.875,3.794-13.827,9.362c-1.703,0.949-3.173,0.153-4.59-0.68c-3.24-1.904-6.472-3.823-9.702-5.745  c-1.369-0.813-3.009-1.643-2.027-3.786C250.043,412.354,260.815,407.435,274.015,406.972z"/>
<path fill-rule="evenodd" clip-rule="evenodd" fill="#326189" d="M555.057,442.816c-0.047,7.354-0.093,14.707-0.14,22.061  c-3.858,4.021-9.229,5.696-13.665,8.825c-1.671,0.527-3.013,2.734-5.13,1.036c-0.025-10.595-0.052-21.189-0.077-31.784  C542.363,440.357,548.702,440.568,555.057,442.816z"/>
<path fill-rule="evenodd" clip-rule="evenodd" fill="#A5CCE5" d="M536.122,474.738c1.618-0.641,3.237-1.28,4.856-1.921  c5.382,1.508,10.105,4.156,14.069,8.12c0.003,7.343,0.006,14.686,0.009,22.028c-6.332,2.387-12.656,2.529-18.97-0.074  C536.099,493.506,536.11,484.122,536.122,474.738z"/>
<path fill-rule="evenodd" clip-rule="evenodd" fill="#A5CCE5" d="M131.048,481.937c0.003,7.343,0.006,14.686,0.009,22.028  c-5.5,2.774-11.29,1.521-16.979,1.082c-2.669-0.206-2.582-2.495-2.575-4.553c0.025-7.27,0.017-14.54,0.006-21.803  c-0.059-2.705,1.574-4.146,3.832-5.115c0.5-0.172,1.023-0.229,1.55-0.186C122.043,475.51,127.065,477.863,131.048,481.937z"/>
<path fill-rule="evenodd" clip-rule="evenodd" fill="#336189" d="M116.98,473.821c-0.319,0.085-0.644,0.148-0.972,0.189  c-2.327-0.214-4.479-0.926-4.431-3.684c0.154-8.757-0.696-17.532,0.457-26.269c6.33-0.771,12.677-0.293,19.019-0.256  c-0.045,7.358-0.089,14.717-0.134,22.075C126.829,469.5,122.285,472.328,116.98,473.821z"/>
<path fill-rule="evenodd" clip-rule="evenodd" fill="#4580B5" d="M177.083,499.921c11.591-6.646,23.183-13.293,34.774-19.938  c0.004,7.967,0.009,15.933,0.013,23.899c-0.254,0.215-0.493,0.588-0.768,0.616c-10.367,1.062-20.734,2.014-31.032-0.59  C179.074,502.58,178.078,501.25,177.083,499.921z"/>
<path fill-rule="evenodd" clip-rule="evenodd" fill="#74A0CF" d="M302.287,487.792c6.192-3.305,12.487-6.441,17.99-10.886  c4.106,9.388,4.068,18.726-0.324,28.014c-4.594,2.925-9.706,1.376-14.578,1.528c-3.523,0.11-7.354,1.086-10.514-1.61  C302.475,499.605,304.097,495.882,302.287,487.792z"/>
<path fill-rule="evenodd" clip-rule="evenodd" fill="#97C54F" d="M418.918,442.874l-0.456,0.076l-0.461-0.029  c-0.399-0.476-0.73-0.994-0.997-1.555c-0.886-8.829-0.81-17.655,0.108-26.479c1.362-1.636,2.572-3.436,4.117-4.876  c3.837-3.574,9.315-3.663,13.083-0.408c3.578,3.091,4.536,8.345,1.468,12.539C430.523,429.329,425.184,436.49,418.918,442.874z"/>
<path fill-rule="evenodd" clip-rule="evenodd" fill="#345C67" d="M263.992,448.965c3.323,1.415,6.646,2.83,9.969,4.245  c0.866,6.858,0.842,13.719,0.017,20.579c-8.546-2.067-16.917-4.603-24.222-9.72c-1.463-1.024-2.609-2.501-3.9-3.769  c-0.334-0.668-0.314-1.411,0.299-1.774C251.963,455.086,257.121,450.423,263.992,448.965z"/>
<path fill-rule="evenodd" clip-rule="evenodd" fill="#5AA5D9" d="M211.865,504.948c0.054,2.476,0.12,4.952,0.159,7.428  c0.076,4.776-1.06,8.939-6.078,10.779c-4.981,1.826-9.522,0.77-13.117-3.042c-4.416-4.682-8.282-9.839-11.904-15.166  C191.238,504.126,201.552,504.125,211.865,504.948z"/>
<path fill-rule="evenodd" clip-rule="evenodd" fill="#727074" d="M264.803,385.803c0,2.989,0.034,5.98-0.016,8.97  c-0.021,1.252-0.651,2.268-1.854,2.7c-1.356,0.487-2.544-0.29-2.701-1.445c-0.388-2.853-1.556-1.58-2.77-0.747  c-4.471,3.066-9.257,3.522-14.195,1.416c-3.893-1.66-5.824-4.628-5.681-9.023c0.137-4.189,2.165-6.889,5.886-8.389  c4.3-1.734,8.771-1.82,13.214-0.69c3.45,0.878,3.798-0.65,2.88-3.336c-1.179-3.447-3.966-4.735-7.281-5.137  c-2.683-0.326-5.31,0.092-7.805,1.133c-1.445,0.603-2.734,0.485-3.319-1.021c-0.498-1.281,0.563-2.174,1.514-2.843  c8.261-5.815,21.117-0.06,22.071,9.944c0.267,2.798,0.041,5.644,0.041,8.467C264.792,385.802,264.797,385.802,264.803,385.803z"/>
<path fill-rule="evenodd" clip-rule="evenodd" fill="#727074" d="M303.217,383.772c-2.83,0.006-5.664,0.084-8.491-0.018  c-2.553-0.092-2.646,0.993-1.934,3.05c1.909,5.521,8.05,8.309,13.851,6.07c1.226-0.473,2.377-1.184,3.489-1.898  c1.277-0.82,2.704-2.035,3.893-0.382c1.318,1.834-0.403,2.995-1.659,4.025c-6.927,5.68-18.038,3.94-22.723-3.776  c-3.576-5.89-3.398-12.106-0.047-18.042c2.879-5.099,7.498-7.349,13.362-6.987c7.264,0.448,13.321,7.268,13.068,14.512  c-0.094,2.677-1.492,3.452-3.817,3.443C309.212,383.757,306.215,383.766,303.217,383.772z"/>
<path fill-rule="evenodd" clip-rule="evenodd" fill="#409190" d="M345.18,503.946c8.067,0.029,16.134,0.058,24.201,0.086  c-3.875,5.189-7.623,10.48-11.662,15.54c-3.881,4.863-10.407,6.037-14.61,2.958c-4.325-3.166-4.833-9.386-1.122-14.765  C342.924,506.405,344.108,505.214,345.18,503.946z"/>
<path fill-rule="evenodd" clip-rule="evenodd" fill="#BFDBF1" d="M111.999,476.933c-0.001,7.6,0.125,15.202-0.062,22.797  c-0.08,3.238,1,4.398,4.255,4.262c4.947-0.208,9.909-0.037,14.866-0.026c-0.009,3.492,0.006,6.984-0.033,10.476  c-0.055,4.988-3.546,8.993-8.228,9.491c-5.423,0.576-10.03-2.628-10.812-7.885c-1.942-13.051-0.746-26.186-0.832-39.286  C111.484,476.574,111.766,476.631,111.999,476.933z"/>
<path fill-rule="evenodd" clip-rule="evenodd" fill="#ADD3E9" d="M559.79,406.249c7.117,0.299,14.454-1.999,21.273,1.806  c1.061,1.406,1.543,2.952,1.149,4.715c-1.643,4.541-2.699,9.362-6.177,13.035c-5.382,0.01-10.765,0.02-16.146,0.029  c-2.596-5.871-1.169-11.969-1.024-17.999C559.045,407.231,559.356,406.704,559.79,406.249z"/>
<path fill-rule="evenodd" clip-rule="evenodd" fill="#5AA4D9" d="M211.991,419.929c-0.021,7.984-0.043,15.969-0.064,23.952  c-6.579,2.552-13.163,2.513-19.752,0.037c-0.015-4.329-0.029-8.658-0.044-12.987C197.68,425.332,203.779,420.723,211.991,419.929z"/>
<path fill-rule="evenodd" clip-rule="evenodd" fill="#2E4C37" d="M192.174,443.918c6.584-0.012,13.168-0.023,19.752-0.036  c0.322,7.985,0.438,15.972-0.067,23.956c-6.44-3.875-12.696-8.08-19.674-10.993C192.182,452.537,192.178,448.228,192.174,443.918z"/>
<path fill-rule="evenodd" clip-rule="evenodd" fill="#336189" d="M559.746,407.026c0.048,6.27,0.096,12.539,0.144,18.808  c-1.274,0.083-2.55,0.165-3.824,0.247c-3.678,2.074-7.512,1.505-11.36,0.682c-3.673-4.383-5.296-9.706-6.86-15.066  c-0.043-0.601,0.005-1.189,0.119-1.778c0.543-1.844,1.372-3.526,3.609-3.437C547.629,406.725,553.724,405.73,559.746,407.026z"/>
<path fill-rule="evenodd" clip-rule="evenodd" fill="#5C7FBA" d="M294.861,504.837c8.363,0.027,16.728,0.055,25.092,0.082  c-3.314,7.794-9.054,12.999-16.961,15.891c-7.802-2.477-14.172-7.589-21.166-11.55c-0.721-0.408-1.047-1.249-0.801-2.16  C285.765,507.123,290.42,506.634,294.861,504.837z"/>
<path fill-rule="evenodd" clip-rule="evenodd" fill="#BFDBF1" d="M536.087,502.891c6.323,0.024,12.646,0.049,18.97,0.073  c-0.009,3.472,0.005,6.942-0.032,10.412c-0.061,5.688-3.979,9.597-9.565,9.579c-5.571-0.018-9.43-3.935-9.451-9.655  C535.994,509.831,536.058,506.361,536.087,502.891z"/>
<path fill-rule="evenodd" clip-rule="evenodd" fill="#BFDBF1" d="M469.038,472.842c-3.64,0.029-7.28,0.111-10.92,0.075  c-5.321-0.054-9.146-4.065-9.144-9.491c0.001-5.432,3.819-9.433,9.144-9.483c3.64-0.035,7.28,0.046,10.92,0.075  C471.187,460.292,471.187,466.568,469.038,472.842z"/>
<path fill-rule="evenodd" clip-rule="evenodd" fill="#A6CCE5" d="M538.845,411.048c0.028,0.286,0.035,0.572,0.021,0.859  c-0.72,5.207-2.299,10.056-5.872,14.071c-5.01,0.003-10.02,0.006-15.028,0.009c-2.756-5.554-1.514-11.378-1.048-17.118  c0.166-2.047,1.847-2.456,3.707-2.439c4.998,0.046,9.997,0.021,14.991,0.013C538.763,406.522,538.104,409.276,538.845,411.048z"/>
<path fill-rule="evenodd" clip-rule="evenodd" fill="#ACD3E9" d="M544.132,425.763c3.978,0.106,7.956,0.212,11.934,0.317  c-0.467,5.571,0.78,11.245-1.009,16.735c-6.338,0.046-12.675,0.092-19.012,0.138c-0.04-5.632-0.08-11.263-0.12-16.894  C538.581,423.761,541.334,424.141,544.132,425.763z"/>
<path fill-rule="evenodd" clip-rule="evenodd" fill="#589DD4" d="M281.025,507.1c5.146,4.074,11.118,6.793,16.679,10.187  c1.807,1.104,3.528,2.346,5.288,3.523c-8.856,4.485-18.348,4.487-27.916,3.951c-2.562-5.922-2.497-11.854-0.062-17.794  C277.018,507.011,279.022,507.055,281.025,507.1z"/>
<path fill-rule="evenodd" clip-rule="evenodd" fill="#ACD3E9" d="M470.985,454.047c6.01-0.009,12.02-0.018,18.029-0.026  c1.221,1.091,2.115,2.394,2.585,3.977c0.099,0.463,0.124,0.928,0.083,1.399c-2.511,4.697-4.103,9.989-8.612,13.405  c-4.028,0.004-8.057,0.008-12.085,0.011C469.402,466.558,469.402,460.302,470.985,454.047z"/>
<path fill-rule="evenodd" clip-rule="evenodd" fill="#76BBE8" d="M211.991,419.929c-7.184,2.649-13.394,7.057-19.86,11.002  c-0.043-3.644-0.123-7.288-0.124-10.932c-0.002-7.816,3.933-12.985,9.994-12.798C208.597,407.406,213.383,413.465,211.991,419.929z"/>
<path fill-rule="evenodd" clip-rule="evenodd" fill="#5AA4D9" d="M242.893,423.922c4.492,4.917,10.604,7.246,16.319,10.21  c-0.17,3.262-0.715,6.544,0.542,9.726c-6.885,2.644-13.775,2.572-20.669,0.036C238.438,436.872,238.76,430.034,242.893,423.922z"/>
<path fill-rule="evenodd" clip-rule="evenodd" fill="#5AA5D9" d="M251.982,518.035c-6.597-3.095-13.971-5.189-16.836-13.086  c0.855-0.87,1.927-1.326,3.112-1.303c9.358,0.183,18.78-1.193,28.05,1.138c1.538,0.415,3.076,0.83,4.614,1.246  c0.359,1.203-0.447,1.944-1.251,2.412C263.869,511.81,258.373,515.751,251.982,518.035z"/>
<path fill-rule="evenodd" clip-rule="evenodd" fill="#BFDBF1" d="M536.888,406.896c-4.832,0.01-9.676,0.226-14.493-0.038  c-3.623-0.197-4.612,1.249-4.458,4.636c0.221,4.821,0.039,9.661,0.028,14.494c-2.333-0.009-4.69-0.238-6.992,0.025  c-3.266,0.374-4.938-1.451-6.231-3.932c-4.044-7.757,0.275-15.72,8.956-16.021c7.817-0.271,15.653,0.004,23.481,0.038  C537.332,406.456,537.247,406.726,536.888,406.896z"/>
<path fill-rule="evenodd" clip-rule="evenodd" fill="#89C1E9" d="M251.982,518.035c5.636-5.071,13.196-7.105,18.94-12.006  c1.511-0.328,2.811,0.264,4.092,0.938c0.021,5.932,0.041,11.863,0.062,17.795C267.089,523.512,259.083,522.329,251.982,518.035z"/>
<path fill-rule="evenodd" clip-rule="evenodd" fill="#2E4C37" d="M239.084,443.894c6.891-0.011,13.781-0.022,20.67-0.035  c0.829,2.185,2.696,3.51,4.237,5.106c-5.82,4.14-12.566,6.797-18.136,11.336C241.051,455.883,239.053,450.308,239.084,443.894z"/>
<path fill-rule="evenodd" clip-rule="evenodd" fill="#8DC6B8" d="M438.859,515.766c-2.017,8.535-10.863,11.392-17.083,5.424  c-1.532-1.47-2.638-3.383-3.939-5.092c-1.529-4.019-2.406-8.03,0.137-12.002l0.014-0.471c0.452-0.184,0.918-0.226,1.397-0.134  c5.788,2.487,11.011,6.01,16.491,9.063C437.24,513.315,438.165,514.417,438.859,515.766z"/>
<path fill-rule="evenodd" clip-rule="evenodd" fill="#727174" d="M275.324,371.9c2.455-2.745,4.819-4.791,8.004-5.549  c1.722-0.409,3.497-0.595,4.171,1.465c0.704,2.154-0.84,2.683-2.605,3.299c-7.255,2.53-9.689,5.908-9.986,13.609  c-0.128,3.318-0.061,6.645-0.069,9.966c-0.004,1.682-0.567,3.113-2.424,3.109c-1.842-0.004-2.424-1.396-2.421-3.104  c0.015-8.472,0.014-16.944,0.002-25.417c-0.002-1.697,0.641-3.271,2.388-3.166C275.601,366.305,274.473,369.297,275.324,371.9z"/>
<path fill-rule="evenodd" clip-rule="evenodd" fill="#2A483A" d="M362.082,414.875c-5.953,2.957-11.703,6.261-17.135,10.103  c-5.068-5.874-4.949-12.079,0.304-15.844C350.691,405.236,357.587,407.588,362.082,414.875z"/>
<path fill-rule="evenodd" clip-rule="evenodd" fill="#5A9052" d="M417.112,414.887c1.896,5.783,0.441,11.727,0.812,17.585  c0.197,3.12-0.007,6.266-0.03,9.399c-6.41-0.087-11.066-3.481-15.12-8.014C407.553,427.535,412.332,421.21,417.112,414.887z"/>
<path fill-rule="evenodd" clip-rule="evenodd" fill="#326189" d="M160.145,446.809c-2.094,4.472-7.068,5.054-10.49,7.737  c-1.52,1.192-3.8,1.357-4.686,3.435c-4.37-4.186-7.67-9.224-11.209-14.071c8.078-0.009,16.156-0.018,24.233-0.026  C158.71,444.859,159.428,445.833,160.145,446.809z"/>
<path fill-rule="evenodd" clip-rule="evenodd" fill="#96C7EA" d="M146.131,428.903c-6.866-1.862-12.094-6.793-18.349-9.821  c-3.724-1.803-7.207-4.101-10.798-6.176c0.773-3.88,4.609-3.45,7.037-5.002c4.107-0.61,7.135,1.409,9.483,4.36  C137.836,417.712,141.935,423.346,146.131,428.903z"/>
<path fill-rule="evenodd" clip-rule="evenodd" fill="#4680B6" d="M235.115,503.888c-0.725-4.086,0.808-7.246,4.403-9.056  c3.558-1.791,7.365-1.848,10.751,0.554c4.041,2.864,8.14,5.601,12.638,7.7c-0.134,0.421,0.099,1.116-0.631,1.125  C253.22,504.323,244.157,504.976,235.115,503.888z"/>
<path fill-rule="evenodd" clip-rule="evenodd" fill="#48A4A4" d="M298.994,429.842c5.152-4.496,11.948-6.44,17.067-10.989  c3.58,4.27,3.876,8.039,0.944,12.028c-2.497,3.397-7.401,4.72-11.652,2.819C303.107,432.696,301.105,431.146,298.994,429.842z"/>
<path fill-rule="evenodd" clip-rule="evenodd" fill="#85949E" d="M116.98,473.821c4.315-3.229,8.951-5.895,13.938-7.943  c0.043,5.354,0.086,10.706,0.129,16.06C126.134,479.623,121.383,477.023,116.98,473.821z"/>
<path fill-rule="evenodd" clip-rule="evenodd" fill="#85949E" d="M555.048,480.937c-4.915-2.316-9.667-4.914-14.069-8.119  c4.317-3.225,8.95-5.895,13.938-7.941C554.961,470.23,555.004,475.583,555.048,480.937z"/>
<path fill-rule="evenodd" clip-rule="evenodd" fill="#2C4A4A" d="M418.102,502.932c-0.005-6.11-0.009-12.221-0.014-18.33  c3.778,3.72,6.905,7.967,9.965,12.271C427.578,501.099,423.46,503.607,418.102,502.932z"/>
<path fill-rule="evenodd" clip-rule="evenodd" fill="#66B058" d="M402.773,433.858c5.042,2.669,9.521,6.399,15.121,8.015  c0.034,0.349,0.07,0.698,0.106,1.048c-0.347,0.032-0.693,0.063-1.04,0.097c-7.028-0.05-14.057-0.101-21.085-0.151  C397.836,439.603,400.041,436.529,402.773,433.858z"/>
<path fill-rule="evenodd" clip-rule="evenodd" fill="#96C7EA" d="M483.07,472.802c2.651-4.629,5.303-9.259,7.954-13.889  c3.879,0.773,3.451,4.608,5.002,7.037c-0.146,6.415-0.701,6.974-7.079,6.974C486.988,472.924,485.029,472.845,483.07,472.802z"/>
<path fill-rule="evenodd" clip-rule="evenodd" fill="#648049" d="M438.859,515.766c-6.6-3.942-13.199-7.885-19.799-11.828  c4.533-1.963,9.222-1.737,13.947-0.99C436.204,506.652,440.103,510.036,438.859,515.766z"/>
<path fill-rule="evenodd" clip-rule="evenodd" fill="#86949E" d="M544.132,425.763c-2.735,0.099-5.472,0.197-8.207,0.296  c-0.978-0.026-1.954-0.054-2.932-0.08c1.61-4.836,3.413-9.591,5.873-14.071C540.405,416.609,543.432,420.744,544.132,425.763z"/>
<path fill-rule="evenodd" clip-rule="evenodd" fill="#96C7EA" d="M576.036,425.804c0.991-4.867,4.341-8.889,4.978-13.882  c4.458,0.56,1.865,5.154,4.023,7.03C584.861,425.795,584.403,426.144,576.036,425.804z"/>
<path fill-rule="evenodd" clip-rule="evenodd" fill="#4BA4A3" d="M401.693,494.948c5.715,1.938,10.672,5.188,15.379,8.874  c0.475,0.96-0.142,1.285-0.889,1.536c-2.38-0.141-4.78-0.049-7.138-0.538C406.322,501.732,403.652,498.605,401.693,494.948z"/>
<path fill-rule="evenodd" clip-rule="evenodd" fill="#3B5E3C" d="M433.008,502.948c-4.528,2.043-9.312,0.474-13.948,0.99  c-0.356-0.104-0.715-0.208-1.072-0.312c0.025-0.233,0.063-0.465,0.113-0.694c3.842-1.158,7.811-2.109,9.952-6.059  C429.704,498.898,431.355,500.923,433.008,502.948z"/>
<path fill-rule="evenodd" clip-rule="evenodd" fill="#C3D6A9" d="M415.913,504.722c0.386-0.3,0.771-0.6,1.158-0.899  c0.318,0.035,0.619,0.127,0.903,0.273c-0.046,4-0.091,8-0.137,12.001c-2.804-2.57-4.803-5.768-6.919-8.873  C411.883,504.992,413.916,504.892,415.913,504.722z"/>
<path fill-rule="evenodd" clip-rule="evenodd" fill="#588DBA" d="M111.999,476.933c-0.281-0.062-0.563-0.118-0.846-0.171  c0.031-10.894,0.063-21.786,0.095-32.679c0.262-0.042,0.524-0.051,0.787-0.026c0.012,7.294,0.272,14.6-0.067,21.878  c-0.174,3.729,0.853,6.301,4.042,8.075C114.672,474.985,113.335,475.959,111.999,476.933z"/>
<path fill-rule="evenodd" clip-rule="evenodd" fill="#A5CCE5" d="M470.985,454.047c0,6.256,0,12.512,0,18.767  c-0.649,0.01-1.298,0.02-1.947,0.029c0-6.276,0-12.552,0-18.826C469.688,454.028,470.337,454.038,470.985,454.047z"/>
<path fill-rule="evenodd" clip-rule="evenodd" fill="#6CADD9" d="M211.865,504.948c-10.313-0.001-20.626-0.001-30.94-0.001  c-0.285-0.346-0.57-0.692-0.855-1.038c10.601-0.009,21.2-0.018,31.8-0.026C211.868,504.238,211.867,504.592,211.865,504.948z"/>
<path fill-rule="evenodd" clip-rule="evenodd" fill="#6CACD9" d="M235.115,503.888c7.874,0.015,15.747,0.052,23.62,0.023  c1.418-0.005,2.988,0.474,4.173-0.825c1.133,0.566,2.266,1.132,3.4,1.697c-10.386,0.055-20.774,0.11-31.161,0.165  C235.136,504.595,235.126,504.242,235.115,503.888z"/>
<path fill-rule="evenodd" clip-rule="evenodd" fill="#588DBB" d="M536.888,406.896c0.133-0.253,0.23-0.52,0.291-0.798  c7.537,0.05,15.074,0.1,22.611,0.149c0.013,0.262-0.002,0.521-0.044,0.778c-5.125-0.01-10.258,0.143-15.373-0.086  c-3.184-0.144-5.104,0.824-5.528,4.108C537.719,409.887,537.046,408.513,536.888,406.896z"/>
<path fill-rule="evenodd" clip-rule="evenodd" fill="#78BCE8" d="M496.026,465.951c-1.667-2.346-3.335-4.691-5.002-7.036  c-0.009-0.322-0.013-0.645-0.01-0.966c0.241-1.023,0.051-2.466,1.885-1.947C496.345,458.563,496.375,462.197,496.026,465.951z"/>
<path fill-rule="evenodd" clip-rule="evenodd" fill="#78BCE8" d="M124.021,407.904c-2.345,1.667-4.691,3.335-7.037,5.002  c-0.322,0.009-0.644,0.013-0.966,0.01c-1.023-0.241-2.465-0.051-1.946-1.885C116.632,407.584,120.268,407.556,124.021,407.904z"/>
<path fill-rule="evenodd" clip-rule="evenodd" fill="#7DBEE2" d="M585.037,418.953c-3.14-1.314-1.315-5.469-4.023-7.03  c0.882-1.279,0.083-2.579,0.05-3.869C585.117,410.692,585.433,414.693,585.037,418.953z"/>
<path fill-rule="evenodd" clip-rule="evenodd" fill="#57637E" d="M273.978,473.79c-0.006-6.86-0.011-13.72-0.017-20.579  c0.35,0.224,0.7,0.448,1.05,0.673c0.002,6.66,0.004,13.32,0.006,19.98C274.67,473.838,274.324,473.814,273.978,473.79z"/>
<path fill-rule="evenodd" clip-rule="evenodd" fill="#469492" d="M415.913,504.722c-1.665,0.833-3.33,1.667-4.995,2.501  c-0.623-0.801-1.247-1.602-1.872-2.402C411.315,503.416,413.606,503.528,415.913,504.722z"/>
<path fill-rule="evenodd" clip-rule="evenodd" fill="#A0CECD" d="M492.899,456.001c-0.628,0.649-1.257,1.298-1.885,1.946  c-1.272-1-1.852-2.355-2-3.928C490.62,454.073,491.94,454.683,492.899,456.001z"/>
<path fill-rule="evenodd" clip-rule="evenodd" fill="#A0CECD" d="M114.072,411.031c0.648,0.628,1.297,1.257,1.946,1.885  c-1.012,1.286-2.387,1.857-3.972,2.013C112.165,413.34,112.737,411.988,114.072,411.031z"/>
<path fill-rule="evenodd" clip-rule="evenodd" fill="#FDFDFD" d="M250.107,393.923c-4.433-0.021-8.005-2.572-7.8-5.983  c0.257-4.272,3.271-5.84,7.136-6.107c1.485-0.104,3.008-0.168,4.472,0.042c2.146,0.308,5.121-0.57,5.924,2.299  c0.881,3.144-0.487,5.857-3.201,7.759C254.684,393.301,252.535,394.081,250.107,393.923z"/>
<path fill-rule="evenodd" clip-rule="evenodd" fill="#FDFDFD" d="M301.503,379.927c-1.328,0.002-2.671,0.12-3.982-0.027  c-1.726-0.194-4.272,1.001-5-0.696c-0.842-1.964,0.848-4.062,2.167-5.77c2.23-2.888,5.267-4.027,8.81-3.393  c3.842,0.689,5.896,3.4,7.125,6.903c0.727,2.071,0.287,3.13-2.145,3.006C306.158,379.833,303.828,379.925,301.503,379.927z"/>
</svg>
